<svg xmlns="http://www.w3.org/2000/svg"  viewBox="0 0 50 50" width="500px" height="500px"><path d="M 9 4 C 6.2504839 4 4 6.2504839 4 9 L 4 41 C 4 43.749516 6.2504839 46 9 46 L 41 46 C 43.749516 46 46 43.749516 46 41 L 46 9 C 46 6.2504839 43.749516 4 41 4 L 9 4 z M 9 6 L 41 6 C 42.668484 6 44 7.3315161 44 9 L 44 41 C 44 42.668484 42.668484 44 41 44 L 9 44 C 7.3315161 44 6 42.668484 6 41 L 6 9 C 6 7.3315161 7.3315161 6 9 6 z M 17 10 A 1.0001 1.0001 0 0 0 16.283203 10.304688 A 1.0001 1.0001 0 0 0 16.158203 10.458984 A 1.0001 1.0001 0 0 0 16.158203 10.460938 A 1.0001 1.0001 0 0 0 16 11 L 16 40 A 1.0001 1.0001 0 0 0 17.164062 40.986328 L 23.164062 39.986328 A 1.0001 1.0001 0 0 0 24 39 L 24 33.572266 L 25.992188 39.150391 A 1.0001 1.0001 0 0 0 26.773438 39.974609 A 1.0001 1.0001 0 0 0 26.835938 39.986328 L 32.835938 40.986328 A 1.0001 1.0001 0 0 0 32.935547 40.998047 A 1.0001 1.0001 0 0 0 33.035156 41 A 1.0001 1.0001 0 0 0 34 40 L 34 11 A 1.0001 1.0001 0 0 0 33 10 L 27 10 A 1.0001 1.0001 0 0 0 26 11 L 26 16.632812 L 23.996094 10.822266 A 1.0001 1.0001 0 0 0 23.054688 10.001953 A 1.0001 1.0001 0 0 0 23 10 L 17 10 z M 18.417969 12 L 22.287109 12 L 26.033203 22.865234 A 1.0001 1.0001 0 0 0 26.083984 23.011719 L 31.505859 38.736328 L 27.744141 38.109375 L 23.964844 27.529297 A 1.0001 1.0001 0 0 0 23.910156 27.376953 L 18.417969 12 z M 28 12 L 32 12 L 32 34.033203 L 28 22.431641 L 28 12 z M 18 16.771484 L 22 27.972656 L 22 38.152344 L 18 38.820312 L 18 16.771484 z"/></svg>