<svg xmlns="http://www.w3.org/2000/svg" width="303.358" height="300.322" viewBox="0 0 303.358 300.322">
  <g id="グループ_2364" data-name="グループ 2364" transform="translate(-401.396 -218.633)">
    <g id="グループ_2360" data-name="グループ 2360" transform="translate(425.968 470.903)">
      <path id="パス_11793" data-name="パス 11793" d="M635.658,553.881a76.879,76.879,0,0,0-6.891-7.434l-5.712,5.259a95.614,95.614,0,0,1,6.528,7.071Z" transform="translate(-475.455 -544.09)"/>
      <path id="パス_11794" data-name="パス 11794" d="M632.289,586.143c3.446,4.443,7.163,4.352,12.693,4.352h26.746v-6.437H658.491v-1.723h12.33V576.8h-12.33v-1.722h12.33V558.944h-12.33v-1.723h9.61v-2.085h2.72v-9.973H637.185v9.973h3.627v2.085h9.61v1.723h-12.33v16.138h12.33V576.8h-12.33v5.531h12.33v1.723h-2.991c-2.993,0-7.253.181-9.067-.816-2.176-1.179-2.085-2.81-2.085-4.624V562.48H624.13v7.072h4.442v9.882a23.169,23.169,0,0,1-5.984,4.352L626.4,590.5A30.049,30.049,0,0,0,632.289,586.143Zm26.2-35.178h5.984v1.723h-5.984Zm0,12.331h5.984v1.723h-5.984Zm0,5.711h5.984v1.723h-5.984Zm-14.054-16.319v-1.723h5.984v1.723Zm0,10.608h5.984v1.723h-5.984Zm0,7.434v-1.723h5.984v1.723Z" transform="translate(-475.351 -543.803)"/>
      <g id="グループ_2359" data-name="グループ 2359" transform="translate(205.262 1.36)">
        <rect id="長方形_1108" data-name="長方形 1108" width="5.531" height="20.944" transform="translate(33.727 15.504)"/>
        <path id="パス_11795" data-name="パス 11795" d="M727.8,585.975h1.813v8.976h5.53V565.123H722.27v29.829h5.53Zm0-15.594h1.813v2.538H727.8Zm0,7.616h1.813v2.538H727.8Z" transform="translate(-702.868 -549.619)"/>
        <path id="パス_11796" data-name="パス 11796" d="M703.456,590.5h5.893V584.42h6.074v-5.983h-6.165v-1.814h5.8V557.04h-5.8v-1.723h6.165v-5.893h-6.165v-4.261h-5.8v4.261h-6.165v5.893h6.165v1.723h-5.8v19.583h5.8v1.814h-6.165v5.983h6.165Zm5.349-28.468h1.632v2.266h-1.632Zm0,6.89h1.632v2.357h-1.632Zm-6.528-6.89h1.632v2.266h-1.632Zm0,9.247v-2.357h1.632v2.357Z" transform="translate(-697.291 -545.163)"/>
        <path id="パス_11797" data-name="パス 11797" d="M724.537,559.216h22.847v-4.261l2.267,1v-6.528l-9.611-4.261h-8.159l-9.611,4.261v6.528l2.266-1Zm8.341-7.979h6.166l4.714,2.086H728.162Z" transform="translate(-702.868 -545.163)"/>
        <path id="パス_11798" data-name="パス 11798" d="M746.533,594.952c5.168,0,8.069-1.088,8.069-5.078V565.123h-6.074V588.6h-4.08v.454a20.7,20.7,0,0,1,1.814,5.893Z" transform="translate(-707.819 -549.619)"/>
      </g>
      <path id="パス_11799" data-name="パス 11799" d="M433.485,561.726,445,561.182l6.074,30.282,9.339-1.814-5.8-28.922,16.227-.721A48.318,48.318,0,0,1,462.86,570.7l6.875,5.537a95.061,95.061,0,0,0,9.577-12.426l.182-.272a40.108,40.108,0,0,0,2.859-5.35l-6.075-6.89h-.09l-23.211,1-1.813-8.885-9.339,1.813,1.541,7.526-10.335.453Z" transform="translate(-433.031 -543.412)"/>
      <path id="パス_11800" data-name="パス 11800" d="M586.629,570.874v-.995c2.86.676,5.144,1.289,7.976,2.079,4.243,1.186,7.851,2.353,9.319,2.785l2.669-9.111c-3.868-1.132-6.95-2.018-10.4-2.928-2.8-.74-5.806-1.486-9.569-2.364V544.617h-9.792v46.239h9.792Z" transform="translate(-465.137 -543.681)"/>
      <path id="パス_11801" data-name="パス 11801" d="M525.131,573.5c-3.343-4.385-7.449-9.6-7.449-9.6l-7.416,5.1s4.372,5.478,8.667,11.375c2.191,3.008,9.013,12.469,9.013,12.469l7.509-5.192c-.774-1.148-2.357-3.414-4.93-6.926a88.441,88.441,0,0,0,19.906-22.969l-6.074-6.891H504.1V559.3h34.137A63.479,63.479,0,0,1,525.131,573.5Z" transform="translate(-448.898 -545.077)"/>
    </g>
    <g id="グループ_2363" data-name="グループ 2363" transform="translate(401.396 218.633)">
      <g id="グループ_2362" data-name="グループ 2362">
        <g id="グループ_2361" data-name="グループ 2361">
          <path id="パス_11802" data-name="パス 11802" d="M401.4,328.716c0-73.109,67.226-110.083,152.1-110.083s151.259,36.975,151.259,110.083S638.368,437.958,553.495,438.8,401.4,401.825,401.4,328.716Z" transform="translate(-401.396 -218.633)" fill="#fccf00"/>
          <path id="パス_11803" data-name="パス 11803" d="M694.4,315.494l-3.133-12.753-.8-.292-54.376,20.74H545.274v-.9a17.217,17.217,0,0,0,2.917-4.708,47.716,47.716,0,0,0,2.865-17.1V265.814h-3.773L525.2,288.728H490.533l-22.084-22.914h-3.773v34.675a46.9,46.9,0,0,0,3.265,18.137c3.542,7.78,7.966,9.98,7.966,9.98v.9h-4.549l-11.743-12.187h-3.773v19.244c0,6.01,1.4,10.75,3.829,14.385a20.743,20.743,0,0,0,10.015,7.757,19.283,19.283,0,0,0,6.222,1.146v.9h-15l-.637.637v6.8l.994,1.232,14.644,7.68v10.845l-10.85,7.442-.413.814V403.2l.635.635h10.628a31.7,31.7,0,0,0,31.377-31.7V360.061l10.394,12.508-11.6,46.549.636.636h19.238l.851-.309L557.752,382.2h50.575l30.955,37.25.851.309H659.37l.636-.636L642.652,349.5l51.475-33.05Z" transform="translate(-413.551 -229.166)"/>
          <path id="パス_11804" data-name="パス 11804" d="M532.293,319.867c-.792-1.312-.661-2.806,1-4.14a31.435,31.435,0,0,1,15.59-5.268c2.376-.179,3.789.939,3.931,3.1.137,2.073-.837,3.3-3.553,3.506a41.577,41.577,0,0,0-13.511,3.785A2.643,2.643,0,0,1,532.293,319.867Z" transform="translate(-430.515 -239.13)" fill="#fccf00"/>
          <path id="パス_11805" data-name="パス 11805" d="M507.311,319.867c.792-1.312.661-2.806-1-4.14a31.434,31.434,0,0,0-15.589-5.268c-2.376-.179-3.789.939-3.932,3.1-.137,2.073.838,3.3,3.554,3.506a41.584,41.584,0,0,1,13.511,3.785A2.642,2.642,0,0,0,507.311,319.867Z" transform="translate(-420.459 -239.13)" fill="#fccf00"/>
          <path id="パス_11806" data-name="パス 11806" d="M499.783,365.336a2.19,2.19,0,0,1,.734-3.052,23.171,23.171,0,0,1,11.492-3.883c1.752-.132,2.793.692,2.9,2.281.1,1.529-.618,2.432-2.619,2.585a30.621,30.621,0,0,0-9.959,2.791A1.95,1.95,0,0,1,499.783,365.336Z" transform="translate(-423.284 -249.834)" fill="#fccf00"/>
          <path id="パス_11807" data-name="パス 11807" d="M484.5,365.336a2.19,2.19,0,0,0-.733-3.052A23.171,23.171,0,0,0,472.27,358.4c-1.752-.133-2.793.692-2.9,2.281-.1,1.529.618,2.432,2.619,2.585a30.628,30.628,0,0,1,9.96,2.791A1.949,1.949,0,0,0,484.5,365.336Z" transform="translate(-416.57 -249.834)" fill="#fccf00"/>
        </g>
      </g>
    </g>
  </g>
</svg>
